<svg xmlns="http://www.w3.org/2000/svg" viewBox="0 0 750 500"><g id="freepik--background-simple--inject-49"><path d="M191.74,414.91H504.52a219.11,219.11,0,0,0,55-44.71c50.74-57.27,69.39-154.1,43.34-225.91l-2.4-5.17c-19.28-41.56-59.71-70.29-105.89-73.66a125.82,125.82,0,0,0-19.51.08c-43.29,3.57-83.86,30.08-104,68-11.85,22.28-17.68,48.91-37,65.38-25.1,21.43-62.73,17.54-95.62,12.46s-70.55-8.88-95.55,12.66c-15.66,13.49-22.72,34.55-24.12,55C115.08,332.51,146.7,384.68,191.74,414.91Z" style="fill:#e0e0e0"></path></g><g id="freepik--Plant--inject-49"><path d="M609.52,327.76A31.52,31.52,0,0,0,596,323.09c-2.21-.22-4.63-.16-6.41,1.18a1.35,1.35,0,0,0-.66,1.17,1.5,1.5,0,0,0,.63.8,19.37,19.37,0,0,0,20,1.52" style="fill:#1E1E1E"></path><path d="M609.17,327.37a66.07,66.07,0,0,1-8.75-7.7,22,22,0,0,1-5.48-10.14,4.09,4.09,0,0,1,.43-3.4c7,5.45,12.45,12.5,13.8,21.24" style="fill:#1E1E1E"></path><path d="M609.45,327.7a31.41,31.41,0,0,1,.16-11.48,15.51,15.51,0,0,1,6.12-9.48c1.2,2.81.69,6.06-.16,9a43.65,43.65,0,0,1-6.07,12.78" style="fill:#1E1E1E"></path><path d="M616.29,340c-4.16.51-7.77,2.7-10.87,5.5a20.54,20.54,0,0,0-6.21,10.67c4.07-.25,7.52-3.12,10-6.34s4.24-6.75,7-9.76" style="fill:#1E1E1E"></path><path d="M617.77,341.91a26.81,26.81,0,0,1,3.09-25.34c2.37,8.41,1.5,17.91-3.09,25.34" style="fill:#1E1E1E"></path><path d="M626.8,352.67a19.39,19.39,0,0,0-18.52,10.67,1.44,1.44,0,0,0-.13,1.45,1.38,1.38,0,0,0,1.23.36c3.65-.24,6.89-2.43,9.56-4.93s5-5.4,7.95-7.56" style="fill:#1E1E1E"></path><path d="M626.52,352.09a34.46,34.46,0,0,1-.35-19.28c.68-2.48,1.82-5.09,4.11-6.26a.84.84,0,0,1,.63-.11.86.86,0,0,1,.4.46,11.52,11.52,0,0,1,1,5.53,34.3,34.3,0,0,1-.86,5.6c-.73,3.42-1.11,7.1-3,10.05a20.42,20.42,0,0,0-1.19,2.21c-.36.75-.36,1-.68,1.61" style="fill:#1E1E1E"></path><path d="M650.43,355.65c-1.77-6.74.11-14.91,4.36-20.44.31-.4.72-.84,1.23-.79.79.07,1,1.11,1,1.9a36.88,36.88,0,0,1-6.54,19.33" style="fill:#1E1E1E"></path><path d="M652.59,357.12a29.73,29.73,0,0,0,24.39-5,19.79,19.79,0,0,0-13.21-1.62c-4.41,1-8.44,3-11.18,6.58" style="fill:#1E1E1E"></path><path d="M654.4,352.63c4.59-7.47,13.38-12.35,22.14-12.8-1,3.57-3.94,6.34-7.24,8A40.4,40.4,0,0,1,658.67,351c-1.41.27-3.35.57-4.27,1.68" style="fill:#1E1E1E"></path><path d="M650.89,330.86a64.24,64.24,0,0,0,2.83-13,21.58,21.58,0,0,0-2.59-12.83c-4.28,8.29-4.71,18-.37,26.24" style="fill:#1E1E1E"></path><path d="M665.31,323.57c5-9.1,15.23-16.37,25.57-17.39-4,9.93-14.87,17.61-25.57,17.39" style="fill:#1E1E1E"></path><path d="M662.15,325.36c7.48,1.13,13.84,5.91,20.82,8.8a9.31,9.31,0,0,0,4.71.9,3.68,3.68,0,0,0,2.3-6.52,10,10,0,0,0-3.41-2.07c-7.61-3.17-15.76-3.25-23.77-1.33" style="fill:#1E1E1E"></path><path d="M657.83,330.6c1.69.48,2.27,1.36,3.61,2.5a38.88,38.88,0,0,0,15.79,8.11c.6.15,1.39.2,1.69-.34s-.07-1.05-.41-1.48a21.84,21.84,0,0,0-9.53-6.47c-3.64-1.35-6.8-3-11.15-2.64" style="fill:#1E1E1E"></path><path d="M653,299a29.88,29.88,0,0,0,22.91,7.79,1.54,1.54,0,0,0,1-.37c.58-.63-.12-1.6-.79-2.12-6.73-5.25-14.89-7.43-23.16-5.3" style="fill:#1E1E1E"></path><path d="M658.74,296.83a31.93,31.93,0,0,1,28.58-4.71,22.73,22.73,0,0,1-13.62,6,43.15,43.15,0,0,1-15-1.27" style="fill:#1E1E1E"></path><path d="M656.44,282.29c-.66-6.72-.23-12-.7-18.78,0-.54-.15-1.19-.66-1.38-.7-.27-1.29.59-1.52,1.31a21.54,21.54,0,0,0,2.87,18.7" style="fill:#1E1E1E"></path><path d="M656,283a39.4,39.4,0,0,0,11.13-10.82c2.2-3,4-6.61,3.55-10.3a10.65,10.65,0,0,0-8,4,22.33,22.33,0,0,0-4.09,8.23c-.89,3-1.52,6-2.56,8.9" style="fill:#1E1E1E"></path><path d="M666.89,280a89.74,89.74,0,0,0,27.4-16.16c-3.27-1.32-7-.53-10.29.79a32.46,32.46,0,0,0-17.25,15.29" style="fill:#1E1E1E"></path><path d="M659,286.71a56.15,56.15,0,0,0,15.21.08c4.94-.83,9.6-2.78,14.21-4.72a1.64,1.64,0,0,0,1-.74,1.11,1.11,0,0,0-.34-1.21,3,3,0,0,0-1.21-.57c-5-1.4-10.42-.74-15.35.92A71.35,71.35,0,0,0,659,286.71" style="fill:#1E1E1E"></path><path d="M630.15,299.18c-3.45-7-3.23-15.09-.25-22.27,2.1,3.19,2.36,7.27,2,11.07s-1.54,7.72-1.61,11.55" style="fill:#1E1E1E"></path><path d="M616.36,292.23a31,31,0,0,0-23.08,9.83,21.53,21.53,0,0,0,12.64-2.34,64.16,64.16,0,0,0,10.83-7.25" style="fill:#1E1E1E"></path><path d="M607.1,289.13c-4.22-.34-8.27-.87-12.33.38a14.78,14.78,0,0,0-9.39,8,22.27,22.27,0,0,0,11.55-2.18,67.16,67.16,0,0,0,10.17-6.16" style="fill:#1E1E1E"></path><path d="M620.82,289.27c-3.79-2.49-7.69-5-12.1-6s-9.53-.27-12.61,3c3.57,2.1,7.91,2.35,12,2.35s9.23-.05,13.13,1.33" style="fill:#1E1E1E"></path><path d="M620.84,289.47c-6.48-6.37-8.94-17.8-6.33-26.5a40.38,40.38,0,0,1,6.33,26.5" style="fill:#1E1E1E"></path><path d="M638.67,271.43c1.22-2.84,2.08-5.82,3.17-8.71a25.15,25.15,0,0,1,4.54-8,11.91,11.91,0,0,1,8-4.16,32.36,32.36,0,0,1-15.59,21" style="fill:#1E1E1E"></path><path d="M635.44,275.19c-2-2.78-4.36-6.56-7.1-8.64s-6.32-3.34-9.67-2.54a22.5,22.5,0,0,0,16.77,11.18" style="fill:#1E1E1E"></path><path d="M636.09,271.67a47.58,47.58,0,0,1-3.2-10.36,16.14,16.14,0,0,1,1.62-10.53c3.56,6.73,4.7,14,1.76,21" style="fill:#1E1E1E"></path><path d="M638.7,250.78c2-6.67,8.12-11.58,14.71-13.83a5.59,5.59,0,0,1,2.58-.39,2.24,2.24,0,0,1,1.9,1.59c.24,1.13-.69,2.15-1.58,2.9a50.09,50.09,0,0,1-17.61,9.73" style="fill:#1E1E1E"></path><path d="M638.77,245.33c.26-4.3.53-8.66,1.92-12.74s4.1-7.89,8-9.67c.67,4.34-1.25,8.66-3.56,12.39s-5.1,7.27-6.48,11.43" style="fill:#1E1E1E"></path><path d="M638.67,248.29c-1.67-4.86-1.84-11-4.75-15.27-2-3-5.29-5-7-8.11a12.4,12.4,0,0,0,.41,9.21,26.64,26.64,0,0,0,5.39,7.7c2.15,2.3,4,4,6,6.47" style="fill:#1E1E1E"></path><path d="M638.7,391.39c-.13,0-.24-32.41-.25-72.39s.09-72.41.22-72.41.24,32.41.25,72.41S638.83,391.39,638.7,391.39Z" style="fill:#263238"></path><path d="M667,294.29a7.59,7.59,0,0,1-1.22.46l-3.36,1.13c-2.82,1-6.71,2.36-10.93,4.08s-8.11,3.25-10.35,5.19a7.63,7.63,0,0,0-2.08,2.76c-.32.76-.38,1.22-.42,1.21s0-.11,0-.34a5.14,5.14,0,0,1,.24-.94,7.25,7.25,0,0,1,2-2.93,18.11,18.11,0,0,1,4.49-2.8c1.8-.83,3.79-1.71,5.91-2.58,4.23-1.73,8.14-3.08,11-4,1.43-.44,2.6-.77,3.41-1A7,7,0,0,1,667,294.29Z" style="fill:#263238"></path><path d="M676.31,271.48a1.66,1.66,0,0,1-.34.36l-1,1-3.88,3.53-12.93,11.51c-5,4.49-9.4,8.78-12.42,12-1.52,1.62-2.71,2.95-3.52,3.88l-.94,1.08a2.19,2.19,0,0,1-.35.35s.08-.15.28-.41.48-.65.87-1.13c.77-1,1.93-2.35,3.41-4a164.79,164.79,0,0,1,12.36-12.14c5.06-4.48,9.67-8.51,13-11.41l4-3.42c.44-.36.81-.66,1.1-.91A2.15,2.15,0,0,1,676.31,271.48Z" style="fill:#263238"></path><path d="M652.68,292.42c-.14-.05.92-2.49,2-5.57s1.56-5.67,1.69-5.65a19.18,19.18,0,0,1-1.25,5.8,37.55,37.55,0,0,1-1.57,3.9A6.36,6.36,0,0,1,652.68,292.42Z" style="fill:#263238"></path><path d="M638.73,312.05a6,6,0,0,1-.78-.91l-2-2.55c-1.67-2.16-4-5.15-6.58-8.42s-5-6.19-6.7-8.31l-2-2.52a6.71,6.71,0,0,1-.7-1,5.66,5.66,0,0,1,.84.84c.52.56,1.25,1.39,2.15,2.42,1.79,2.07,4.22,5,6.82,8.24s4.87,6.3,6.47,8.51c.81,1.11,1.45,2,1.88,2.65A6.21,6.21,0,0,1,638.73,312.05Z" style="fill:#263238"></path><path d="M632.52,304.07a11.34,11.34,0,0,1-2.61-4.87,14.14,14.14,0,0,1-.59-4.91l.21,0c-.09.37-.16.57-.2.56s0-.21,0-.6l.2,0a22.94,22.94,0,0,0,.83,4.78A35.43,35.43,0,0,0,632.52,304.07Z" style="fill:#263238"></path><path d="M624.5,294a9.1,9.1,0,0,0-1.82-1.05,12.15,12.15,0,0,0-5-.4,30.8,30.8,0,0,0-5.08.82,16.37,16.37,0,0,1-2.09.5,6.91,6.91,0,0,1,2-.82,23.21,23.21,0,0,1,5.13-1,11,11,0,0,1,5.2.56A3.22,3.22,0,0,1,624.5,294Z" style="fill:#263238"></path><path d="M622.6,291.54c0,.07-1.06-.42-2.79-1a28,28,0,0,0-14-1.07c-1.8.32-2.88.65-2.91.58a2.75,2.75,0,0,1,.74-.32,18.36,18.36,0,0,1,2.1-.59,24.87,24.87,0,0,1,14.21,1.08,17.36,17.36,0,0,1,2,.91A2.61,2.61,0,0,1,622.6,291.54Z" style="fill:#263238"></path><path d="M638.67,281.2a55.31,55.31,0,0,1-2-7.05,56,56,0,0,1-1.58-7.17,57.85,57.85,0,0,1,2,7.06A58.24,58.24,0,0,1,638.67,281.2Z" style="fill:#263238"></path><path d="M638.8,281.2a35.77,35.77,0,0,0-2.25-4.22,18.87,18.87,0,0,0-3.32-3.42,3.14,3.14,0,0,1,1.28.66,10.29,10.29,0,0,1,2.42,2.49A9.49,9.49,0,0,1,638.8,281.2Z" style="fill:#263238"></path><path d="M638.7,374.11c-.05,0-.15-.78-.51-2.15a30.45,30.45,0,0,0-2.17-5.62,77.71,77.71,0,0,0-11.49-16.19c-2.57-2.93-5.06-5.7-7.17-8.34a58.65,58.65,0,0,1-5.13-7.4,36.54,36.54,0,0,1-2.59-5.48c-.23-.68-.41-1.21-.5-1.57a3.11,3.11,0,0,1-.14-.56s.28.74.81,2.06a41.34,41.34,0,0,0,2.71,5.39,63.15,63.15,0,0,0,5.17,7.29c2.13,2.62,4.62,5.37,7.19,8.3,5.19,5.83,9.26,11.71,11.44,16.36a27.74,27.74,0,0,1,2,5.71,14.78,14.78,0,0,1,.29,1.63A3,3,0,0,1,638.7,374.11Z" style="fill:#263238"></path><path d="M664.3,345.2A14.86,14.86,0,0,1,663,346a29.74,29.74,0,0,0-3.48,2.3,39.35,39.35,0,0,0-4.57,4.17c-1.61,1.7-3.26,3.66-4.95,5.77-3.37,4.23-6.52,8-8.41,11-1,1.49-1.66,2.74-2.11,3.61a10.89,10.89,0,0,1-.74,1.35s0-.13.12-.38.24-.6.45-1.05a34.57,34.57,0,0,1,2-3.7,118.87,118.87,0,0,1,8.33-11.08c1.69-2.11,3.36-4.09,5-5.78a37.28,37.28,0,0,1,4.69-4.13,24.94,24.94,0,0,1,3.59-2.2c.45-.22.81-.36,1-.46S664.29,345.18,664.3,345.2Z" style="fill:#263238"></path><path d="M664.8,354.58A19.18,19.18,0,0,1,662,355a37.53,37.53,0,0,0-6.72,1.33,19.85,19.85,0,0,0-6,3.16c-1.39,1.07-2.05,2-2.11,1.9a2.33,2.33,0,0,1,.42-.65,10.08,10.08,0,0,1,1.48-1.51,18.16,18.16,0,0,1,6.08-3.35,30,30,0,0,1,6.84-1.21A15.4,15.4,0,0,1,664.8,354.58Z" style="fill:#263238"></path><path d="M647.94,360.35c-.15-.08,1.13-2,2.12-4.66s1.15-5,1.31-4.94a4.5,4.5,0,0,1,0,1.52,17,17,0,0,1-.83,3.58,17.53,17.53,0,0,1-1.65,3.29C648.35,359.93,648,360.39,647.94,360.35Z" style="fill:#263238"></path><path d="M672.59,320a3.54,3.54,0,0,1-.46.24l-1.33.6c-.58.25-1.29.57-2.09,1s-1.73.84-2.71,1.43l-1.55.88c-.53.3-1.06.67-1.63,1-1.14.7-2.28,1.55-3.5,2.42A65.38,65.38,0,0,0,652,334a66.94,66.94,0,0,0-6.18,7.52c-.83,1.25-1.64,2.42-2.29,3.59-.33.57-.68,1.12-1,1.66s-.56,1.08-.83,1.58c-.55,1-.94,1.94-1.33,2.76s-.69,1.53-.92,2.12-.41,1-.56,1.35a2.19,2.19,0,0,1-.22.46,1.75,1.75,0,0,1,.14-.49c.12-.37.28-.82.47-1.39s.48-1.33.85-2.16.74-1.79,1.27-2.8l.81-1.6c.28-.55.63-1.1,1-1.69.65-1.18,1.45-2.37,2.28-3.63a62.91,62.91,0,0,1,6.19-7.61,65.12,65.12,0,0,1,7.39-6.45c1.24-.87,2.4-1.71,3.55-2.39.58-.35,1.12-.71,1.66-1s1.07-.58,1.57-.86c1-.56,1.94-1,2.76-1.36a21.75,21.75,0,0,1,2.13-.92l1.37-.53A1.48,1.48,0,0,1,672.59,320Z" style="fill:#263238"></path><path d="M652.33,333.59a3.25,3.25,0,0,1,1.11-1.66,7.07,7.07,0,0,1,4.49-1.72,12.37,12.37,0,0,1,4.72.92,6.89,6.89,0,0,1,1.79.87,10.27,10.27,0,0,1-1.89-.55,14.1,14.1,0,0,0-4.6-.77,7.27,7.27,0,0,0-4.29,1.5A13,13,0,0,0,652.33,333.59Z" style="fill:#263238"></path><path d="M649.3,336.71a12,12,0,0,0,1-8.47,2.76,2.76,0,0,1,.53,1.21,8.57,8.57,0,0,1,.22,3.17,8.45,8.45,0,0,1-.95,3C649.69,336.38,649.35,336.75,649.3,336.71Z" style="fill:#263238"></path><path d="M616.31,378.76c.7,12.39,4.43,25,10.17,37.72h25c5.48-12.61,8.95-25.19,9.57-37.72Z" style="fill:#455a64"></path><path d="M657,398.8c0,.13-8.23.24-18.37.24s-18.36-.11-18.36-.24,8.22-.23,18.36-.23S657,398.68,657,398.8Z" style="fill:#fafafa"></path><path d="M656.42,403.29c0,.13-7.71.24-17.22.24s-17.21-.11-17.21-.24,7.71-.23,17.21-.23S656.42,403.16,656.42,403.29Z" style="fill:#fafafa"></path></g><g id="freepik--Device--inject-49"><rect x="175.89" y="156.3" width="384.52" height="254.28" rx="14.57" style="fill:#455a64"></rect><path d="M160.86,394.16H577.46a0,0,0,0,1,0,0v4.45a17.8,17.8,0,0,1-17.8,17.8h-381a17.8,17.8,0,0,1-17.8-17.8v-4.45a0,0,0,0,1,0,0Z" style="fill:#455a64"></path><rect x="186.21" y="166.4" width="362.8" height="214.73" style="fill:#263238"></rect><polygon points="330.25 391.77 335.41 400 408.16 400 412.96 391.77 330.25 391.77" style="fill:#263238"></polygon><rect x="193.69" y="173.67" width="348.6" height="206.78" rx="3.27" style="fill:#ebebeb"></rect><polygon points="541.91 380.75 193.31 380.75 193.69 189.13 541.91 189.13 541.91 380.75" style="fill:#fafafa"></polygon><path d="M222.28,181.66a2.79,2.79,0,1,1-2.79-2.78A2.78,2.78,0,0,1,222.28,181.66Z" style="fill:#263238"></path><path d="M205.4,181.66a2.79,2.79,0,1,1-2.78-2.78A2.77,2.77,0,0,1,205.4,181.66Z" style="fill:#263238"></path><path d="M213.5,181.66a2.79,2.79,0,1,1-2.78-2.78A2.77,2.77,0,0,1,213.5,181.66Z" style="fill:#263238"></path><path d="M557.1,391.77c0,.14-85.34.25-190.59.25s-190.62-.11-190.62-.25,85.33-.25,190.62-.25S557.1,391.64,557.1,391.77Z" style="fill:#263238"></path><polygon points="305.31 263.98 447.14 262.66 451.29 359.07 304.43 358.02 305.31 263.98" style="fill:#1E1E1E"></polygon><path d="M305.31,264l67-54.45a7.72,7.72,0,0,1,9.74,0l65.08,53.12" style="fill:#1E1E1E"></path><g style="opacity:0.30000000000000004"><path d="M305.31,264l67-54.45a7.72,7.72,0,0,1,9.74,0l65.08,53.12"></path></g><path d="M304.43,358c-.17-.17,11.15-12.59,25.3-27.74S355.5,303,355.68,303.14s-11.15,12.58-25.31,27.74S304.61,358.18,304.43,358Z" style="fill:#263238"></path><path d="M451.29,359.07c-.18.17-11.26-12-24.75-27.07s-24.28-27.5-24.1-27.66,11.26,12,24.76,27.08S451.47,358.91,451.29,359.07Z" style="fill:#263238"></path><g style="opacity:0.5"><polyline points="447.14 262.66 376.04 319.7 305.31 263.98"></polyline></g><polygon points="312.47 269.24 312.15 224.94 436.34 223.22 437.83 269.82 376.03 318.95 312.47 269.24" style="fill:#fafafa"></polygon><path d="M312.47,269.24s.41.29,1.18.88l3.38,2.61,12.86,10c11.08,8.65,27,21,46.27,36.08h-.26l61.77-49.17-.09.21c-.29-8.89-.59-18.22-.89-27.71-.21-6.39-.41-12.71-.61-18.9l.26.25-124.18,1.64.16-.17c.06,13.93.12,25,.15,32.58,0,3.79,0,6.71,0,8.7,0,1,0,1.73,0,2.25s0,.77,0,.77,0-.25,0-.75,0-1.26,0-2.23c0-2-.06-4.9-.1-8.68-.07-7.61-.18-18.68-.31-32.64v-.16h.16L436.33,223h.26v.26c.2,6.19.4,12.5.61,18.89.3,9.49.6,18.82.88,27.71v.13l-.1.08-61.84,49.1-.13.11-.13-.11-46.22-36.27-12.76-10.06-3.33-2.64Z" style="fill:#263238"></path><path d="M416.76,245.56c0,.14-19,.41-42.42.6s-42.42.23-42.42.09,19-.41,42.42-.61S416.76,245.41,416.76,245.56Z" style="fill:#263238"></path><path d="M416.78,258.07c0,.14-19,.42-42.41.61s-42.42.23-42.42.08,19-.41,42.42-.6S416.78,257.93,416.78,258.07Z" style="fill:#263238"></path><path d="M416.81,272.49c0,.15-19,.42-42.41.61s-42.42.23-42.42.08,19-.41,42.42-.6S416.81,272.35,416.81,272.49Z" style="fill:#263238"></path><path d="M416.84,286.91c0,.15-18.11.41-40.46.59s-40.47.22-40.47.07,18.11-.41,40.47-.59S416.84,286.77,416.84,286.91Z" style="fill:#263238"></path><path d="M401,299.6a1.65,1.65,0,0,1-.5.06l-1.43.06-5.24.13-17.31.32c-6.76.12-12.89.16-17.32.16l-5.24,0-1.43,0a2,2,0,0,1-.5-.05,1.65,1.65,0,0,1,.5-.06l1.42-.06,5.25-.13,17.31-.31c6.76-.13,12.88-.17,17.31-.17l5.25,0,1.43,0A2.55,2.55,0,0,1,401,299.6Z" style="fill:#263238"></path><path d="M385,311.8a76.73,76.73,0,0,1-9,.28,77.38,77.38,0,0,1-9-.24,79.42,79.42,0,0,1,9-.28A80.12,80.12,0,0,1,385,311.8Z" style="fill:#263238"></path></g><g id="freepik--Floor--inject-49"><path d="M709,415.55c0,.15-149.54.26-334,.26s-334-.11-334-.26,149.51-.26,334-.26S709,415.41,709,415.55Z" style="fill:#263238"></path></g></svg>